<svg xmlns="http://www.w3.org/2000/svg" width="900" height="620" viewBox="0 0 900 620" role="img" aria-labelledby="title desc">
  <title id="title">Timber frame cutting-list workflow</title>
  <desc id="desc">Synthetic workflow diagram showing assumptions, import staging, human review, workbook generation, QA checks, and private exports.</desc>
  <rect width="900" height="620" fill="#f8fafc"/>
  <rect x="54" y="56" width="792" height="508" rx="8" fill="#ffffff" stroke="#d7dee8" stroke-width="2"/>
  <text x="90" y="112" font-family="Arial, Helvetica, sans-serif" font-size="28" font-weight="700" fill="#17202a">Reviewed-source workbook path</text>
  <text x="90" y="145" font-family="Arial, Helvetica, sans-serif" font-size="16" fill="#5d6978">Synthetic diagram. No real plans, addresses, workbooks, exports, or project records.</text>
  <g font-family="Arial, Helvetica, sans-serif" font-size="15" font-weight="700" text-anchor="middle">
    <rect x="88" y="202" width="176" height="78" rx="8" fill="#e6f7fa" stroke="#0b7285" stroke-width="2"/>
    <text x="176" y="234" fill="#17202a">Project</text>
    <text x="176" y="256" fill="#17202a">assumptions</text>
    <rect x="362" y="202" width="176" height="78" rx="8" fill="#fff4e6" stroke="#c56a11" stroke-width="2"/>
    <text x="450" y="234" fill="#17202a">Plan import</text>
    <text x="450" y="256" fill="#17202a">staging</text>
    <rect x="636" y="202" width="176" height="78" rx="8" fill="#edf2ff" stroke="#4263eb" stroke-width="2"/>
    <text x="724" y="234" fill="#17202a">Human</text>
    <text x="724" y="256" fill="#17202a">review</text>
    <rect x="88" y="386" width="176" height="78" rx="8" fill="#f1f3f5" stroke="#495057" stroke-width="2"/>
    <text x="176" y="418" fill="#17202a">Workbook</text>
    <text x="176" y="440" fill="#17202a">builder</text>
    <rect x="362" y="386" width="176" height="78" rx="8" fill="#fff0f0" stroke="#9a3412" stroke-width="2"/>
    <text x="450" y="418" fill="#17202a">QA and</text>
    <text x="450" y="440" fill="#17202a">manifests</text>
    <rect x="636" y="386" width="176" height="78" rx="8" fill="#ebfbee" stroke="#2b8a3e" stroke-width="2"/>
    <text x="724" y="418" fill="#17202a">Private</text>
    <text x="724" y="440" fill="#17202a">exports</text>
  </g>
  <g fill="none" stroke="#5d6978" stroke-width="3" stroke-linecap="round" stroke-linejoin="round">
    <path d="M264 241 H357"/>
    <path d="M538 241 H631"/>
    <path d="M724 280 V334 H176 V381"/>
    <path d="M264 425 H357"/>
    <path d="M538 425 H631"/>
  </g>
  <g fill="#5d6978">
    <path d="M357 241 l-10 -7 v14z"/>
    <path d="M631 241 l-10 -7 v14z"/>
    <path d="M176 381 l-7 -10 h14z"/>
    <path d="M357 425 l-10 -7 v14z"/>
    <path d="M631 425 l-10 -7 v14z"/>
  </g>
</svg>
